<svg width="40" height="14" viewBox="0 0 40 14" fill="none" xmlns="http://www.w3.org/2000/svg">
<line y1="6.97751" x2="36" y2="6.97751" stroke="black" stroke-width="4"/>
<path d="M37.639 7.03441L32.6796 9.7443L28.0263 12.382" stroke="black" stroke-width="3"/>
<path d="M37.6128 7.38171L32.706 4.60317L28 2.03441" stroke="black" stroke-width="3"/>
<path d="M37.8652 6.19209C37.9033 6.39955 38.1353 6.44859 38.2881 6.54483C38.4033 6.61732 38.4567 6.70466 38.5412 6.80612C38.6468 6.93275 38.7616 7.10266 38.6294 7.24949C38.5603 7.32626 38.4582 7.34863 38.373 7.39728C38.3463 7.41258 38.3681 7.47735 38.3869 7.492C38.4032 7.5047 38.4812 7.53941 38.4751 7.54426C38.4325 7.57831 38.3541 7.59287 38.3363 7.65531C38.307 7.75787 38.2735 7.70315 38.2032 7.75002" stroke="black" stroke-linecap="square"/>
<path d="M38.1003 7.19152C37.9875 7.19636 37.6888 7.31354 37.6888 7.08864" stroke="black" stroke-linecap="square"/>
</svg>
