<svg width="40" height="14" viewBox="0 0 40 14" fill="none" xmlns="http://www.w3.org/2000/svg">
<line x1="39.6888" y1="7.02249" x2="3.68883" y2="7.02249" stroke="black" stroke-width="4"/>
<path d="M2.04987 6.96559L7.00921 4.2557L11.6625 1.61795" stroke="black" stroke-width="3"/>
<path d="M2.07601 6.61829L6.9828 9.39683L11.6888 11.9656" stroke="black" stroke-width="3"/>
<path d="M1.82367 7.80791C1.78557 7.60045 1.55356 7.55141 1.40071 7.45517C1.28558 7.38268 1.23213 7.29534 1.14759 7.19388C1.04206 7.06725 0.92725 6.89734 1.0594 6.75051C1.12849 6.67374 1.23065 6.65137 1.31579 6.60272C1.34256 6.58742 1.32075 6.52265 1.30191 6.508C1.28558 6.4953 1.20766 6.46059 1.21373 6.45574C1.25629 6.42169 1.3347 6.40713 1.35253 6.34469C1.38184 6.24213 1.41532 6.29685 1.48563 6.24998" stroke="black" stroke-linecap="square"/>
<path d="M1.58851 6.80848C1.70135 6.80364 2.00004 6.68646 2.00004 6.91136" stroke="black" stroke-linecap="square"/>
</svg>
