<svg width="50" height="50" viewBox="0 0 50 50" fill="none" xmlns="http://www.w3.org/2000/svg">
<g filter="url(#filter0_d_2_26)">
<path d="M35 0H15C6.71573 0 0 6.71573 0 15V35C0 43.2843 6.71573 50 15 50H35C43.2843 50 50 43.2843 50 35V15C50 6.71573 43.2843 0 35 0Z" fill="#EDE7F2"/>
</g>
<path fill-rule="evenodd" clip-rule="evenodd" d="M25.3808 13.5781C25.5671 13.4108 25.8136 13.3232 26.0659 13.3344C31.3985 13.4941 35.8552 17.3652 36.6629 22.5392C36.668 22.5701 36.668 22.6016 36.6629 22.6325C36.6803 22.8773 36.5975 23.1188 36.433 23.3036C36.2684 23.4884 36.0356 23.6013 35.786 23.6172L26.8266 24.2081C26.5303 24.2343 26.2364 24.1368 26.0172 23.9395C25.798 23.7422 25.6737 23.4634 25.6749 23.1715L25.0727 14.371V14.2259C25.0837 13.9784 25.1945 13.7453 25.3808 13.5781ZM24.7663 26.5093L32.5318 26.0117L32.5846 26.0325C32.9181 26.0379 33.2357 26.1731 33.4675 26.4084C33.6993 26.6436 33.8264 26.9595 33.8208 27.2867C33.5148 31.7458 30.2455 35.4716 25.7966 36.4314C21.3476 37.3913 16.7869 35.3548 14.6024 31.433C13.9601 30.3035 13.5542 29.0594 13.4085 27.7739C13.3521 27.393 13.3273 27.0082 13.3346 26.6233C13.3493 21.8817 16.7252 17.789 21.4488 16.7862C22.0206 16.6792 22.5939 16.9647 22.8434 17.4807C22.9055 17.5744 22.9552 17.6754 22.9913 17.7813C23.0799 19.1482 23.1717 20.5022 23.2632 21.8504C23.3354 22.9151 23.4074 23.9762 23.4773 25.0373C23.4737 25.2873 23.513 25.5361 23.5935 25.7733C23.7831 26.24 24.2549 26.5361 24.7663 26.5093Z" fill="#75578E"/>
<defs>
<filter id="filter0_d_2_26" x="-20" y="-10" width="90" height="90" filterUnits="userSpaceOnUse" color-interpolation-filters="sRGB">
<feFlood flood-opacity="0" result="BackgroundImageFix"/>
<feColorMatrix in="SourceAlpha" type="matrix" values="0 0 0 0 0 0 0 0 0 0 0 0 0 0 0 0 0 0 127 0" result="hardAlpha"/>
<feOffset dy="10"/>
<feGaussianBlur stdDeviation="10"/>
<feColorMatrix type="matrix" values="0 0 0 0 0.0235294 0 0 0 0 0.301961 0 0 0 0 0.227451 0 0 0 0.03 0"/>
<feBlend mode="normal" in2="BackgroundImageFix" result="effect1_dropShadow_2_26"/>
<feBlend mode="normal" in="SourceGraphic" in2="effect1_dropShadow_2_26" result="shape"/>
</filter>
</defs>
</svg>
