<svg width="50" height="50" viewBox="0 0 50 50" fill="none" xmlns="http://www.w3.org/2000/svg">
<g filter="url(#filter0_d_2_11)">
<path d="M35 0H15C6.71573 0 0 6.71573 0 15V35C0 43.2843 6.71573 50 15 50H35C43.2843 50 50 43.2843 50 35V15C50 6.71573 43.2843 0 35 0Z" fill="#E7F2EF"/>
</g>
<path fill-rule="evenodd" clip-rule="evenodd" d="M34.7995 21.6693L35.6398 22.5093C36.305 23.1626 36.6668 24.0493 36.6668 24.9826C36.6785 25.9159 36.3167 26.8038 35.6631 27.4676C35.6553 27.4761 35.6475 27.4837 35.6398 27.4912C35.6359 27.4949 35.632 27.4987 35.6281 27.5026L34.7995 28.3309C34.4727 28.6576 34.2859 29.1009 34.2859 29.5688V30.7693C34.2859 32.7059 32.7104 34.2821 30.773 34.2821H29.5709C29.1041 34.2821 28.6606 34.4676 28.3338 34.7943L27.4935 35.6343C26.8049 36.3238 25.9062 36.6609 25.0076 36.6609C24.1089 36.6609 23.2103 36.3238 22.5217 35.6471L21.6697 34.7943C21.3429 34.4676 20.8994 34.2821 20.4326 34.2821H19.2305C17.2931 34.2821 15.7175 32.7059 15.7175 30.7693V29.5688C15.7175 29.1009 15.5308 28.6576 15.204 28.3193L14.3637 27.4909C12.9982 26.1271 12.9866 23.8976 14.352 22.5221L15.204 21.6693C15.5308 21.3426 15.7175 20.8993 15.7175 20.4209V19.2309C15.7175 17.2943 17.2931 15.7204 19.2305 15.7204H20.4326C20.8994 15.7204 21.3429 15.5326 21.6697 15.2059L22.51 14.3659C23.8755 12.9904 26.1046 12.9904 27.4818 14.3554L28.3338 15.2059C28.6606 15.5326 29.1041 15.7204 29.5709 15.7204H30.773C32.7104 15.7204 34.2859 17.2943 34.2859 19.2309V20.4338C34.2859 20.8993 34.4727 21.3426 34.7995 21.6693ZM21.9965 29.0193C22.2766 29.0193 22.5334 28.9143 22.7201 28.7159L28.7189 22.7204C29.1158 22.3238 29.1158 21.6693 28.7189 21.2726C28.3221 20.8771 27.6802 20.8771 27.2834 21.2726L21.2846 27.2693C20.8878 27.6659 20.8878 28.3193 21.2846 28.7159C21.4713 28.9143 21.7281 29.0193 21.9965 29.0193ZM26.98 27.9926C26.98 28.5642 27.4351 29.0192 28.007 29.0192C28.5672 29.0192 29.0224 28.5642 29.0224 27.9926C29.0224 27.4337 28.5672 26.9776 28.007 26.9776C27.4351 26.9776 26.98 27.4337 26.98 27.9926ZM22.0081 20.9809C22.5683 20.9809 23.0235 21.4359 23.0235 21.9959C23.0235 22.5687 22.5683 23.0226 22.0081 23.0226C21.4479 23.0226 20.9811 22.5687 20.9811 21.9959C20.9811 21.4359 21.4479 20.9809 22.0081 20.9809Z" fill="#51A690"/>
<defs>
<filter id="filter0_d_2_11" x="-20" y="-10" width="90" height="90" filterUnits="userSpaceOnUse" color-interpolation-filters="sRGB">
<feFlood flood-opacity="0" result="BackgroundImageFix"/>
<feColorMatrix in="SourceAlpha" type="matrix" values="0 0 0 0 0 0 0 0 0 0 0 0 0 0 0 0 0 0 127 0" result="hardAlpha"/>
<feOffset dy="10"/>
<feGaussianBlur stdDeviation="10"/>
<feColorMatrix type="matrix" values="0 0 0 0 0.0235294 0 0 0 0 0.301961 0 0 0 0 0.227451 0 0 0 0.03 0"/>
<feBlend mode="normal" in2="BackgroundImageFix" result="effect1_dropShadow_2_11"/>
<feBlend mode="normal" in="SourceGraphic" in2="effect1_dropShadow_2_11" result="shape"/>
</filter>
</defs>
</svg>
