<svg width="50" height="50" viewBox="0 0 50 50" fill="none" xmlns="http://www.w3.org/2000/svg">
<g filter="url(#filter0_d_2_16)">
<path d="M35 0H15C6.71573 0 0 6.71573 0 15V35C0 43.2843 6.71573 50 15 50H35C43.2843 50 50 43.2843 50 35V15C50 6.71573 43.2843 0 35 0Z" fill="#FAF3D8"/>
</g>
<path fill-rule="evenodd" clip-rule="evenodd" d="M29.8515 20.6048C29.8515 23.3461 27.6661 25.5442 24.9406 25.5442C22.2152 25.5442 20.0298 23.3461 20.0298 20.6048C20.0298 17.8625 22.2152 15.6665 24.9406 15.6665C27.6661 15.6665 29.8515 17.8625 29.8515 20.6048ZM24.9406 34.3332C20.9375 34.3332 17.5195 33.6985 17.5195 31.16C17.5195 28.6205 20.9156 27.9627 24.9406 27.9627C28.9436 27.9627 32.3617 28.5973 32.3617 31.1369C32.3617 33.6754 28.9656 34.3332 24.9406 34.3332ZM31.9501 20.694C31.9501 22.0914 31.5333 23.3932 30.802 24.4755C30.7268 24.5868 30.7937 24.7371 30.9263 24.7602C31.1091 24.7917 31.2982 24.8096 31.4904 24.8148C33.4073 24.8653 35.1278 23.6244 35.6032 21.7562C36.3072 18.9813 34.2399 16.4901 31.6074 16.4901C31.3212 16.4901 31.0475 16.5205 30.7811 16.5752C30.7446 16.5836 30.7059 16.6004 30.685 16.633C30.6599 16.6729 30.6787 16.7265 30.7038 16.7612C31.4946 17.876 31.9501 19.2356 31.9501 20.694ZM35.1247 26.7645C36.4127 27.0177 37.2599 27.5347 37.6109 28.2859C37.9076 28.9027 37.9076 29.6182 37.6109 30.2339C37.074 31.3992 35.343 31.7732 34.6703 31.8699C34.5314 31.8909 34.4196 31.7701 34.4342 31.6303C34.7779 28.4015 32.0441 26.8706 31.3369 26.5186C31.3066 26.5029 31.3003 26.4787 31.3034 26.464C31.3055 26.4535 31.3181 26.4367 31.341 26.4335C32.8714 26.4051 34.5167 26.6153 35.1247 26.7645ZM18.5101 24.8147C18.7023 24.8094 18.8903 24.7926 19.0742 24.76C19.2068 24.7369 19.2737 24.5867 19.1985 24.4753C18.4672 23.3931 18.0504 22.0912 18.0504 20.6938C18.0504 19.2354 18.5059 17.8758 19.2967 16.761C19.3217 16.7263 19.3395 16.6727 19.3155 16.6328C19.2946 16.6013 19.2549 16.5834 19.2194 16.575C18.9519 16.5204 18.6783 16.4899 18.392 16.4899C15.7595 16.4899 13.6922 18.9811 14.3973 21.7561C14.8726 23.6242 16.5932 24.8651 18.5101 24.8147ZM18.6965 26.4634C18.6997 26.4791 18.6934 26.5023 18.6641 26.5191C17.9559 26.871 15.2221 28.4019 15.5657 31.6297C15.5804 31.7705 15.4696 31.8903 15.3307 31.8703C14.658 31.7737 12.927 31.3996 12.3901 30.2344C12.0923 29.6176 12.0923 28.9031 12.3901 28.2864C12.741 27.5351 13.5872 27.0181 14.8752 26.7639C15.4843 26.6157 17.1285 26.4056 18.66 26.434C18.6829 26.4371 18.6944 26.4539 18.6965 26.4634Z" fill="#FFCF00"/>
<defs>
<filter id="filter0_d_2_16" x="-20" y="-10" width="90" height="90" filterUnits="userSpaceOnUse" color-interpolation-filters="sRGB">
<feFlood flood-opacity="0" result="BackgroundImageFix"/>
<feColorMatrix in="SourceAlpha" type="matrix" values="0 0 0 0 0 0 0 0 0 0 0 0 0 0 0 0 0 0 127 0" result="hardAlpha"/>
<feOffset dy="10"/>
<feGaussianBlur stdDeviation="10"/>
<feColorMatrix type="matrix" values="0 0 0 0 0.745833 0 0 0 0 0.649564 0 0 0 0 0.450608 0 0 0 0.05 0"/>
<feBlend mode="normal" in2="BackgroundImageFix" result="effect1_dropShadow_2_16"/>
<feBlend mode="normal" in="SourceGraphic" in2="effect1_dropShadow_2_16" result="shape"/>
</filter>
</defs>
</svg>
