<svg width="50" height="50" viewBox="0 0 50 50" fill="none" xmlns="http://www.w3.org/2000/svg">
<g filter="url(#filter0_d_2_31)">
<path d="M34.7528 0H15.2472C6.82641 0 0 6.71573 0 15V35C0 43.2843 6.82641 50 15.2472 50H34.7528C43.1736 50 50 43.2843 50 35V15C50 6.71573 43.1736 0 34.7528 0Z" fill="#D8F0FA"/>
</g>
<path fill-rule="evenodd" clip-rule="evenodd" d="M30.1549 18.5485H30.3939C33.5345 18.5485 36.0835 21.1735 36.0835 24.3935V30.8335C36.0835 34.0535 33.5345 36.6668 30.3939 36.6668H19.6064C16.4658 36.6668 13.9168 34.0535 13.9168 30.8335V24.3935C13.9168 21.1735 16.4658 18.5485 19.6064 18.5485H19.8454C19.8681 17.1485 20.4029 15.8418 21.3702 14.8618C22.3488 13.8701 23.6006 13.3685 25.0115 13.3335C27.8336 13.3335 30.1208 15.6668 30.1549 18.5485ZM22.565 16.1101C21.9277 16.7635 21.575 17.6268 21.5522 18.5485H28.4481C28.4139 16.6351 26.8891 15.0835 25.0115 15.0835C24.1353 15.0835 23.225 15.4451 22.565 16.1101ZM29.3242 23.0402C29.8021 23.0402 30.1776 22.6435 30.1776 22.1652V20.8118C30.1776 20.3335 29.8021 19.9368 29.3242 19.9368C28.8577 19.9368 28.4707 20.3335 28.4707 20.8118V22.1652C28.4707 22.6435 28.8577 23.0402 29.3242 23.0402ZM21.427 22.1652C21.427 22.6435 21.0515 23.0402 20.5736 23.0402C20.1071 23.0402 19.7201 22.6435 19.7201 22.1652V20.8118C19.7201 20.3335 20.1071 19.9368 20.5736 19.9368C21.0515 19.9368 21.427 20.3335 21.427 20.8118V22.1652Z" fill="#0985B9"/>
<defs>
<filter id="filter0_d_2_31" x="-20" y="-10" width="90" height="90" filterUnits="userSpaceOnUse" color-interpolation-filters="sRGB">
<feFlood flood-opacity="0" result="BackgroundImageFix"/>
<feColorMatrix in="SourceAlpha" type="matrix" values="0 0 0 0 0 0 0 0 0 0 0 0 0 0 0 0 0 0 127 0" result="hardAlpha"/>
<feOffset dy="10"/>
<feGaussianBlur stdDeviation="10"/>
<feColorMatrix type="matrix" values="0 0 0 0 0.745833 0 0 0 0 0.649564 0 0 0 0 0.450608 0 0 0 0.05 0"/>
<feBlend mode="normal" in2="BackgroundImageFix" result="effect1_dropShadow_2_31"/>
<feBlend mode="normal" in="SourceGraphic" in2="effect1_dropShadow_2_31" result="shape"/>
</filter>
</defs>
</svg>
