<svg width="50" height="50" viewBox="0 0 50 50" fill="none" xmlns="http://www.w3.org/2000/svg">
<g filter="url(#filter0_d_2_21)">
<path d="M35 0H15C6.71573 0 0 6.71573 0 15V35C0 43.2843 6.71573 50 15 50H35C43.2843 50 50 43.2843 50 35V15C50 6.71573 43.2843 0 35 0Z" fill="#C0F2EF"/>
</g>
<path fill-rule="evenodd" clip-rule="evenodd" d="M13.3334 23.4484C13.3334 17.8621 17.8138 13.3335 23.3406 13.3335C25.9947 13.3335 28.5401 14.3991 30.4168 16.296C32.2935 18.193 33.3479 20.7657 33.3479 23.4484C33.3479 29.0347 28.8675 33.5633 23.3406 33.5633C17.8138 33.5633 13.3334 29.0347 13.3334 23.4484ZM33.1823 31.5968L36.1627 34.0026H36.2145C36.8174 34.6121 36.8174 35.6002 36.2145 36.2097C35.6115 36.8191 34.6339 36.8191 34.0309 36.2097L31.5575 33.375C31.3237 33.1395 31.1923 32.8195 31.1923 32.4859C31.1923 32.1522 31.3237 31.8323 31.5575 31.5968C32.0085 31.1489 32.7313 31.1489 33.1823 31.5968Z" fill="#00A198"/>
<defs>
<filter id="filter0_d_2_21" x="-20" y="-10" width="90" height="90" filterUnits="userSpaceOnUse" color-interpolation-filters="sRGB">
<feFlood flood-opacity="0" result="BackgroundImageFix"/>
<feColorMatrix in="SourceAlpha" type="matrix" values="0 0 0 0 0 0 0 0 0 0 0 0 0 0 0 0 0 0 127 0" result="hardAlpha"/>
<feOffset dy="10"/>
<feGaussianBlur stdDeviation="10"/>
<feColorMatrix type="matrix" values="0 0 0 0 0.770833 0 0 0 0 0.619075 0 0 0 0 0.56849 0 0 0 0.1 0"/>
<feBlend mode="normal" in2="BackgroundImageFix" result="effect1_dropShadow_2_21"/>
<feBlend mode="normal" in="SourceGraphic" in2="effect1_dropShadow_2_21" result="shape"/>
</filter>
</defs>
</svg>
