<svg width="21" height="21" viewBox="0 0 21 21" fill="none" xmlns="http://www.w3.org/2000/svg">
<path fill-rule="evenodd" clip-rule="evenodd" d="M18.5413 0H2.47464C1.36547 0 0.466309 0.910292 0.466309 2.0332V18.2988C0.466309 19.4217 1.36547 20.332 2.47464 20.332H10.5079V12.6776H7.49536V9.80718H10.5079V8.26577C10.5079 5.34754 12.0037 4.06639 14.4492 4.06639C15.5973 4.06639 16.2151 4.14916 16.5152 4.18937L16.5329 4.19173V6.93678H14.8649C13.827 6.93678 13.5204 7.48024 13.5204 8.58056V9.80718H16.5068L16.0939 12.6776H13.5204V20.332H18.5413C19.6505 20.332 20.5496 19.4217 20.5496 18.2988V2.0332C20.5496 0.910292 19.6505 0 18.5413 0Z" fill="white" fill-opacity="0.8"/>
</svg>
