<svg width="21" height="21" viewBox="0 0 21 21" fill="none" xmlns="http://www.w3.org/2000/svg">
<path fill-rule="evenodd" clip-rule="evenodd" d="M6.6583 0H14.6916C18.0191 0 20.7166 2.73088 20.7166 6.09959V14.2324C20.7166 17.6011 18.0191 20.332 14.6916 20.332H6.6583C3.33079 20.332 0.633301 17.6011 0.633301 14.2324V6.09959C0.633301 2.73088 3.33079 0 6.6583 0ZM16.7 3.04979C17.2021 3.04979 17.7041 3.55809 17.7041 4.06639C17.7041 4.57469 17.2021 5.08299 16.7 5.08299C16.1979 5.08299 15.6958 4.57469 15.6958 4.06639C15.6958 3.55809 16.1979 3.04979 16.7 3.04979ZM15.696 10.166C15.696 7.36271 13.4441 5.08299 10.6751 5.08299C7.90614 5.08299 5.6543 7.36271 5.6543 10.166C5.6543 12.9692 7.90614 15.249 10.6751 15.249C13.4441 15.249 15.696 12.9692 15.696 10.166ZM10.6749 7.11657C9.0111 7.11657 7.66235 8.48201 7.66235 10.1664C7.66235 11.8507 9.0111 13.2162 10.6749 13.2162C12.3386 13.2162 13.6874 11.8507 13.6874 10.1664C13.6874 8.48201 12.3386 7.11657 10.6749 7.11657Z" fill="white" fill-opacity="0.8"/>
</svg>
