<svg width="155" height="50" viewBox="0 0 155 50" fill="none" xmlns="http://www.w3.org/2000/svg">
<path d="M33.4293 16.9496C30.4637 15.272 29.4011 11.4966 31.1339 8.55583C32.8461 5.65004 36.6992 4.60885 39.7006 6.30672C42.6662 7.98438 43.7288 11.7597 41.996 14.7005C40.2632 17.6413 36.4307 18.6475 33.4293 16.9496Z" fill="white"/>
<path d="M80.4365 27.2635C85.408 18.8262 82.418 7.89216 73.8069 3.02088C65.1601 -1.87062 54.0367 1.07936 49.0651 9.51667L35.8212 31.9928C35.8212 31.9928 69.2143 46.3087 80.4365 27.2635Z" fill="white"/>
<path d="M6.31252 25.1758C2.84684 31.0574 4.89512 38.6579 10.8978 42.0536C16.9006 45.4494 24.6218 43.4222 28.0875 37.5406L37.3087 21.8913C37.3444 21.9115 14.1103 11.9422 6.31252 25.1758ZM15.5394 34.1765C13.9672 33.2871 13.4236 31.2991 14.3313 29.7587C15.2389 28.2183 17.2679 27.6856 18.84 28.5749C20.4122 29.4643 20.9558 31.4523 20.0481 32.9927C19.1762 34.5534 17.1472 35.0861 15.5394 34.1765Z" fill="white"/>
<path d="M99.5412 17.3062C100.559 17.7666 101.343 18.3806 101.891 19.2247C102.439 20.0688 102.674 20.9897 102.674 22.1408C102.674 23.2151 102.439 24.2127 101.891 25.0569C101.343 25.901 100.559 26.5149 99.5412 26.9753C98.523 27.4358 97.3482 27.666 96.0168 27.666H92.4924V32.1169H89.5946V16.769H96.0168C97.3482 16.6156 98.523 16.8458 99.5412 17.3062ZM98.6797 24.3662C99.3062 23.829 99.6978 23.0616 99.6978 22.1408C99.6978 21.1432 99.3845 20.3758 98.6797 19.9153C98.0531 19.3782 97.035 19.1479 95.7818 19.1479H92.4141V25.2103H95.7818C97.1133 25.1336 98.0531 24.8267 98.6797 24.3662Z" fill="white"/>
<path d="M115.622 28.5395H107.79L106.223 32.0695H103.247L110.296 16.7217H113.194L120.242 32.0695H117.188L115.622 28.5395ZM114.682 26.3141L111.706 19.6378L108.808 26.3141H114.682Z" fill="white"/>
<path d="M136.813 16.7217V32.0695H134.386L125.77 21.7097V32.0695H122.873V16.7217H125.3L133.916 27.0815V16.7217H136.813V16.7217Z" fill="white"/>
<path d="M148.092 26.6978V32.0695H145.194V26.6978L139.085 16.7217H142.218L146.76 24.1654L151.381 16.7217H154.279L148.092 26.6978Z" fill="white"/>
</svg>
