<svg width="21" height="21" viewBox="0 0 21 21" fill="none" xmlns="http://www.w3.org/2000/svg">
<path fill-rule="evenodd" clip-rule="evenodd" d="M18.8753 0H2.80863C1.69945 0 0.800293 0.910292 0.800293 2.0332V18.2988C0.800293 19.4217 1.69945 20.332 2.80863 20.332H18.8753C19.9845 20.332 20.8836 19.4217 20.8836 18.2988V2.0332C20.8836 0.910292 19.9845 0 18.8753 0ZM16.2144 6.34292C16.7978 6.27465 17.3536 6.12328 17.8711 5.89835C17.4845 6.46412 16.9952 6.96109 16.4312 7.35961C16.4366 7.48081 16.4393 7.60254 16.4393 7.7248C16.4393 11.4555 13.5391 15.7573 8.23392 15.7573C6.60484 15.7573 5.0893 15.2899 3.81274 14.4892C4.03875 14.5156 4.26854 14.5289 4.50104 14.5289C5.85275 14.5289 7.09632 14.0774 8.08307 13.3201C6.82111 13.2973 5.75596 12.4807 5.38884 11.3592C5.56456 11.3915 5.74569 11.4095 5.93115 11.4095C6.19446 11.4095 6.44966 11.3751 6.69135 11.3105C5.37154 11.0517 4.37776 9.91061 4.37776 8.54249V8.50703C4.76651 8.71821 5.21149 8.84523 5.68405 8.86004C4.91033 8.35408 4.40155 7.48981 4.40155 6.51069C4.40155 5.99256 4.54375 5.50776 4.79138 5.09071C6.21446 6.79914 8.33935 7.92327 10.7362 8.04076C10.6875 7.83488 10.6616 7.61895 10.6616 7.39772C10.6616 5.83907 11.9527 4.57469 13.5456 4.57469C14.375 4.57469 15.1244 4.91764 15.6505 5.46648C16.308 5.33946 16.9254 5.10447 17.4823 4.7811C17.2671 5.44055 16.8103 5.99361 16.2144 6.34292Z" fill="white" fill-opacity="0.8"/>
</svg>
